<?xml version="1.0" encoding="UTF-8"?>
<svg width="28px" height="28px" viewBox="0 0 28 28" version="1.1" xmlns="http://www.w3.org/2000/svg" xmlns:xlink="http://www.w3.org/1999/xlink">
    <title>编组 5</title>
    <g id="1920" stroke="none" stroke-width="1" fill="none" fill-rule="evenodd">
        <g id="首页" transform="translate(-360, -562)">
            <g id="编组-5" transform="translate(360, 562)">
                <rect id="矩形" fill="#D8D8D8" opacity="0" x="0" y="0" width="28" height="28"></rect>
                <g id="anli" transform="translate(3, 3)" fill-rule="nonzero">
                    <path d="M15.2125984,18 L6.78740157,18 C6.35301837,18 6,17.5516667 6,17 C6,16.4483333 6.35301837,16 6.78740157,16 L15.2125984,16 C15.6469816,16 16,16.4483333 16,17 C16,17.5516667 15.648294,18 15.2125984,18 L15.2125984,18 Z" id="路径" fill="#333333"></path>
                    <path d="M13.4225297,15 C13.2990344,15 13.1768254,14.9691065 13.0636213,14.9073314 L10.5010921,13.5012768 L7.93856283,14.9073314 C7.67843799,15.0502226 7.36311474,15.0262634 7.12555155,14.8455563 C6.88789018,14.6651376 6.76875021,14.359664 6.81809949,14.0572525 L7.3082218,11.0772761 L5.23324206,8.96886559 C5.02283716,8.75483087 4.94703994,8.43467545 5.0377077,8.14295955 C5.12822535,7.85134727 5.36970545,7.63884079 5.66033027,7.5950414 L8.52645231,7.15992993 L9.80771692,4.44854084 C9.93764436,4.17323883 10.2065041,4 10.4998056,4 C10.7931072,4 11.0619669,4.17458176 11.1918944,4.44854084 L12.473159,7.15992993 L15.339281,7.5950414 C15.6298668,7.6389315 15.8713069,7.85140275 15.9619036,8.14295955 C16.0532384,8.43465019 15.9773531,8.75517763 15.7663692,8.96886559 L13.6939623,11.0786191 L14.1840846,14.0585955 C14.2228129,14.292827 14.1603449,14.5329483 14.0134372,14.7145488 C13.8665294,14.8961494 13.6502191,15.0006408 13.4225297,15 Z M10.4998056,11.7850037 C10.623301,11.7850037 10.7467964,11.8158913 10.8587141,11.8776664 L12.3972608,12.7223735 L12.1039592,10.9349248 C12.0615077,10.6730522 12.1438379,10.4071507 12.3265082,10.2218255 L13.5704669,8.95543622 L11.8505364,8.69490651 C11.5991795,8.65668885 11.3818318,8.49203707 11.269079,8.25442329 L10.4998056,6.62812701 L9.73053231,8.25442329 C9.61861462,8.49212308 9.40121128,8.65730428 9.14907487,8.69490651 L7.42914437,8.95543622 L8.67310308,10.2218255 C8.85478353,10.4070642 8.93793823,10.6735114 8.89565205,10.9349248 L8.60235052,12.7223735 L10.1408972,11.8776664 C10.2528149,11.8158913 10.3763103,11.7850037 10.4998056,11.7850037 L10.4998056,11.7850037 Z" id="形状" fill="#386CEB"></path>
                    <path d="M16.6892963,22 L5.31070373,22 C2.38214075,22 0,19.6303312 0,16.717101 L0,5.28289899 C0,2.3696688 2.38214075,0 5.31070373,0 L16.6892963,0 C19.6178593,0 22,2.3696688 22,5.28289899 L22,16.7158068 C22,19.629037 19.6178593,22 16.6892963,22 Z M5.69574087,2.1993529 C3.76835286,2.1993529 2.2,3.75825138 2.2,5.67402067 L2.2,16.3246851 C2.2,18.2404544 3.76835286,19.7993529 5.69574087,19.7993529 L16.3042591,19.7993529 C18.2316471,19.7993529 19.8,18.2404544 19.8,16.3246851 L19.8,5.67402067 C19.8,3.75825138 18.2316471,2.1993529 16.3042591,2.1993529 L5.69574087,2.1993529 Z" id="形状" fill="#333333"></path>
                </g>
            </g>
        </g>
    </g>
</svg>