<?xml version="1.0" encoding="UTF-8"?>
<svg width="23px" height="23px" viewBox="0 0 23 23" version="1.1" xmlns="http://www.w3.org/2000/svg" xmlns:xlink="http://www.w3.org/1999/xlink">
    <title>suanzi shengheng -no</title>
    <g id="页面-1" stroke="none" stroke-width="1" fill="none" fill-rule="evenodd">
        <g id="算子定义" transform="translate(-11, -118)" fill="#313233" fill-rule="nonzero">
            <g id="suanzi-shengheng--no" transform="translate(11, 118)">
                <g id="icon/创建新对话" transform="translate(0.9583, 0.9583)">
                    <path d="M19.4586093,-6.66133815e-16 C20.3522075,-6.66133815e-16 21.0807947,0.728587196 21.0807947,1.62218543 L21.0807947,2.59448124 L21.0757174,3.97295806 C21.0757174,4.41975717 20.7126932,4.78278146 20.265894,4.78278146 C19.8190949,4.78278146 19.4560706,4.41975717 19.4560706,3.97295806 L19.4560706,1.86335541 C19.4560706,1.83289183 19.4586093,1.80496689 19.4611479,1.77704194 L19.4611479,1.62218543 L1.62218543,1.62218543 L1.62218543,19.4611479 L19.4611479,19.4611479 L19.4611479,12.0003311 C19.4586093,11.9724062 19.4560706,11.9419426 19.4560706,11.9140177 L19.4560706,9.86788079 C19.4560706,9.42108168 19.8190949,9.0580574 20.265894,9.0580574 C20.7126932,9.0580574 21.0757174,9.42108168 21.0782561,9.86788079 L21.0782561,10.74117 L21.0833333,19.4611479 C21.0833333,20.3547461 20.3547461,21.0833333 19.4611479,21.0833333 L1.62218543,21.0833333 C0.728587196,21.0833333 -6.66133815e-16,20.3547461 -6.66133815e-16,19.4611479 L-6.66133815e-16,1.62218543 C-6.66133815e-16,0.728587196 0.728587196,0.00253863135 1.62218543,-6.66133815e-16 Z M10.5454621,5.5 C10.9907988,5.5 11.3526349,5.86094539 11.3526349,6.30518587 L11.3526349,9.44515833 L14.7761606,9.44515833 C15.2214973,9.44515833 15.5833333,9.80610372 15.5833333,10.2503442 C15.5833333,10.6945847 15.2214973,11.0555301 14.7761606,11.0555301 L11.3501046,11.0555301 L11.3501046,15.6948141 C11.3501046,16.1390546 10.9882685,16.5 10.5429318,16.5 C10.0975951,16.5 9.7357591,16.1390546 9.73322877,15.69229 L9.73322877,11.053006 L6.30717273,11.053006 C5.86183605,11.053006 5.5,10.6920606 5.5,10.2478201 C5.5,9.80357962 5.86183605,9.44263424 6.30717273,9.44263424 L9.73828942,9.44263424 L9.73828942,6.30518587 C9.73828942,5.86094539 10.1001255,5.5 10.5454621,5.5 Z M18.765563,5.87409843 C19.1231518,5.53728983 19.6332804,5.41683943 20.1037692,5.55812424 C20.5742579,5.69940906 20.9336199,6.08096201 21.0464733,6.55904145 C21.1594087,7.03710153 21.0086925,7.53909298 20.6511037,7.87590157 C20.2935149,8.21271017 19.7833863,8.33316057 19.3128975,8.19187576 C18.8424087,8.05059094 18.4830468,7.66903799 18.3701934,7.19095855 C18.257258,6.71289847 18.4079742,6.21090702 18.765563,5.87409843 Z" id="形状结合"></path>
                </g>
            </g>
        </g>
    </g>
</svg>