<?xml version="1.0" encoding="UTF-8"?>
<svg width="128px" height="35px" viewBox="0 0 128 35" version="1.1" xmlns="http://www.w3.org/2000/svg" xmlns:xlink="http://www.w3.org/1999/xlink">
    <title>编组</title>
    <defs>
        <polygon id="path-1" points="0 0 24 0 24 27 0 27"></polygon>
        <polygon id="path-3" points="0 0 9 0 9 29 0 29"></polygon>
        <polygon id="path-5" points="0 0 18 0 18 27 0 27"></polygon>
        <polygon id="path-7" points="0 0 20 0 20 27 0 27"></polygon>
    </defs>
    <g id="1920" stroke="none" stroke-width="1" fill="none" fill-rule="evenodd">
        <g id="MCP" transform="translate(-25, -13)">
            <g id="编组" transform="translate(25, 13)">
                <g transform="translate(0, 2)">
                    <mask id="mask-2" fill="white">
                        <use xlink:href="#path-1"></use>
                    </mask>
                    <g id="Clip-2"></g>
                    <path d="M7.72569373,0 L24,0 L23.7476975,2.55625 C23.6413813,3.0765625 23.3938392,3.5078125 23.0034844,3.85 C22.6115427,4.19375 22.1418474,4.365625 21.5943986,4.365625 L11.7625341,4.365625 C10.3518615,4.365625 9.15223442,5.3796875 8.94277572,6.753125 L8.32709409,10.75625 L18.4080874,10.75625 L17.7749509,15.2140625 L7.69395757,15.2140625 L5.92149266,27 L-0.0004760425,27 L3.38735975,3.7109375 C3.55714824,2.6296875 4.04747202,1.740625 4.85991788,1.04375 C5.67236375,0.3484375 6.62762237,0 7.72569373,0" id="Fill-1" fill="#386CEB" mask="url(#mask-2)"></path>
                </g>
                <g transform="translate(25, 0)">
                    <mask id="mask-4" fill="white">
                        <use xlink:href="#path-3"></use>
                    </mask>
                    <g id="Clip-4"></g>
                    <path d="M0,29 L3.67180691,2.22633556 C3.79249078,1.56629036 4.08364063,1.03174671 4.54525645,0.618056409 C5.00687228,0.207464911 5.54844117,-0.000154940188 6.17147167,-0.000154940188 L9,-0.000154940188 L5.31009051,26.7270274 C5.13057325,28.0316238 4.04441837,29 2.7621522,29 L0,29 Z" id="Fill-3" fill="#386CEB" mask="url(#mask-4)"></path>
                </g>
                <path d="M101.00835,21.0803136 C99.533996,22.8850174 97.7383698,23.7881533 95.6198807,23.7881533 C93.822664,23.7881533 92.3578529,23.1060976 91.2222664,21.7419861 C90.0866799,20.3778746 89.5188867,18.6233449 89.5188867,16.4768293 C89.5188867,13.9304878 90.2648111,11.7432056 91.75666,9.91811847 C93.2469185,8.09303136 95.0186879,7.1804878 97.0687873,7.1804878 C98.8485089,7.1804878 100.31332,7.86254355 101.466402,9.22508711 C102.635388,10.5907666 103.219085,12.3249129 103.219085,14.430662 C103.219085,17.0381533 102.482704,19.2552265 101.00835,21.0803136 M104.960636,5.34756098 C102.915308,3.11637631 100.281511,2 97.0576541,2 C93.304175,2 90.1932406,3.40801394 87.7264414,6.22247387 C85.2421471,9.01811847 84,12.5334495 84,16.766899 C84,20.3135889 85.0576541,23.2425087 87.1713718,25.5583624 C89.2866799,27.8522648 91.9650099,29 95.2063618,29 C98.9423459,29 102.008748,27.6013937 104.405567,24.8073171 C106.800795,22.0336237 108,18.4351916 108,14.0135889 C108,10.4684669 106.986879,7.57874564 104.960636,5.34756098" id="Fill-5" fill="#386CEB"></path>
                <g transform="translate(110, 2)">
                    <mask id="mask-6" fill="white">
                        <use xlink:href="#path-5"></use>
                    </mask>
                    <g id="Clip-8"></g>
                    <path d="M16.285254,13.983372 C16.7132885,14.5449594 17.0400675,15.2113557 17.265591,15.9809965 C17.468102,16.7506373 17.4987854,17.6673233 17.3576415,18.7279258 C17.1520622,20.0810545 16.7240277,21.277752 16.0704697,22.3180185 C15.4169117,23.3582851 14.6114705,24.2217845 13.6526119,24.9085168 C12.6722749,25.5952491 11.5814774,26.1146002 10.377151,26.4696987 C9.15288041,26.8232329 7.87644788,27 6.55092178,27 C5.65189598,27 4.83571556,26.9264774 4.10238053,26.7809965 C3.34603288,26.6355156 2.68326984,26.4587486 2.11255721,26.2506952 C1.56025467,26.0426419 1.10153673,25.8236385 0.733335038,25.5952491 C0.386611777,25.3652955 0.142678156,25.1681924 0,25.0023754 L0.428034468,23.9714948 C0.774757728,23.181518 1.30558184,22.5886443 2.02050679,22.1928737 C2.73389757,21.7971031 3.48871104,21.7251448 4.2849472,21.9738702 C4.4076811,22.0161066 4.50893656,22.0473928 4.59178194,22.0677289 C5.30517272,22.2961182 6.15203662,22.4103129 7.13237362,22.4103129 C7.76445319,22.4103129 8.34590503,22.3289687 8.87672914,22.1615875 C9.40755325,22.0161066 9.87701041,21.7971031 10.2851006,21.5061414 C10.6732466,21.2355156 10.9892864,20.8929316 11.2347541,20.4752607 C11.4786878,20.0591541 11.6428444,19.5914253 11.7241556,19.0720742 C11.8054668,18.4885863 11.7134163,17.9895713 11.4480043,17.5734647 C11.1825922,17.1354577 10.8159247,16.7506373 10.3464676,16.4174392 C9.87701041,16.1061414 9.33698126,15.8042294 8.72484594,15.5132677 C8.11271063,15.2223059 7.47909688,14.9094438 6.82553888,14.5762457 C6.17198087,14.2649479 5.55064052,13.9004635 4.95844946,13.4843569 C4.36625841,13.0885863 3.84617352,12.5989571 3.39819479,12.0170336 C2.96862615,11.4554461 2.65258636,10.779664 2.44854126,9.98812283 C2.22301772,9.21848204 2.19386842,8.2924102 2.35649083,7.2099073 C2.54059168,6.06639629 2.93794267,5.06680185 3.55007799,4.21425261 C4.1622133,3.27723059 4.89708251,2.49663963 5.75468562,1.87247972 C6.63223299,1.24831981 7.62177504,0.780590962 8.72484594,0.467728853 C9.84632693,0.154866744 11.0000256,0 12.1828735,0 C12.7950088,0 13.4071441,0.051622248 14.0192794,0.154866744 C14.6114705,0.239339513 15.1622389,0.364484357 15.6731187,0.530301275 C16.1824644,0.697682503 16.6319773,0.872885284 17.0201232,1.06060255 C17.1628014,1.14351101 17.3116163,1.22798378 17.4634995,1.31089224 C17.6169168,1.3938007 17.794881,1.50799537 18.0004603,1.65347625 L17.265591,3.27723059 C16.5307218,4.71326767 15.3156562,5.14032445 13.6219285,4.55683662 L13.591245,4.55683662 C12.9591654,4.34878331 12.3255517,4.20330243 11.6934721,4.12039397 C11.0813368,4.12039397 10.5305684,4.20330243 10.041167,4.36911935 C9.63154261,4.51460023 9.28481935,4.7023175 8.99946304,4.93070684 C8.67268404,5.18099652 8.40727198,5.48290846 8.20322688,5.83644264 C8.02066021,6.16964079 7.89792631,6.53412514 7.83655936,6.9283314 C7.75371398,7.51181924 7.8457644,8.0108343 8.11271063,8.4269409 C8.35664425,8.86494786 8.72484594,9.23881808 9.21424736,9.55168019 C9.70364878,9.88331402 10.2544171,10.1961761 10.8665525,10.4871379 C11.498632,10.779664 12.1414508,11.0800116 12.7950088,11.3928737 C13.4485668,11.7260718 14.0806464,12.0999421 14.6943159,12.5160487 C15.3064512,12.9118192 15.8357411,13.4014484 16.285254,13.983372" id="Fill-7" fill="#386CEB" mask="url(#mask-6)"></path>
                </g>
                <path d="M50.6757573,16.0254609 C50.7585094,15.4041557 50.6991777,14.6798361 50.6570209,14.230758 C50.5945665,13.7591454 50.4493598,13.3744513 50.2214011,13.0750658 C49.9715832,12.7740708 49.6296451,12.5503366 49.1924638,12.4006438 C48.756844,12.2509511 48.2056834,12.1753 47.5421047,12.1753 C46.6490059,12.1753 45.8386593,12.2831431 45.1126262,12.4956102 C44.3850317,12.6887621 43.7308213,12.9141059 43.1484334,13.1700322 C42.775268,13.3213345 42.4224003,13.3100673 42.0898303,13.1378402 C41.7572603,12.9672227 41.5386697,12.6791045 41.4356199,12.2718759 L41,10.08765 C41.2279588,9.8944981 41.569897,9.69168862 42.0273759,9.47761194 C42.567607,9.22007609 43.1796607,8.98507463 43.8650984,8.77099795 C44.5505361,8.53599649 45.2984282,8.35250219 46.1087749,8.22373427 C46.9191215,8.07565116 47.7388363,8 48.5694806,8 C50.0449672,8 51.2909337,8.14969271 52.3089414,8.44907814 C53.3269491,8.75007316 54.1263662,9.2104185 54.7071927,9.83011414 C55.3098782,10.4514194 55.6939731,11.2546093 55.8594775,12.2396839 C56.0468408,13.2022242 56.0468408,14.3595259 55.8594775,15.7083699 L53.3800354,30 L50.6913709,30 C50.1729989,30 49.7467472,29.8020193 49.4141772,29.4060579 C49.0816072,29.0100966 48.9566982,28.4483465 49.0410118,27.7191981" id="Fill-9" fill="#386CEB"></path>
                <path d="M45.3699161,26.1040404 C44.5948259,26.1169677 44.364435,26.092729 43.6335921,26.092729 C42.7608528,26.092729 42.1108756,25.8665016 41.6851864,25.4140466 C41.2579713,24.9422007 41.0962399,24.2974523 41.1969406,23.4798016 C41.2579713,22.9853329 41.3998678,22.5555007 41.6241557,22.1903049 C41.8469178,21.8251091 42.161226,21.501927 42.5670803,21.2239904 C42.9729346,20.9654447 43.4810153,20.7715354 44.0897967,20.6422625 C44.6985782,20.5146056 45.429421,20.4499692 46.2823254,20.4499692 L47.2389819,20.4499692 L48.2612464,20.4499692 L50.6200838,20.4499692 L51,17 L49.704623,17 L48.2612464,17 L46.9216221,17 C45.2768442,17 43.8166843,17.1276569 42.5365649,17.3862026 C41.2579713,17.6447483 40.1731503,18.0422623 39.2790502,18.5787447 C38.366641,19.1378497 37.6449527,19.837539 37.1185628,20.6745807 C36.590647,21.5132384 36.2458235,22.5021756 36.0825663,23.6413926 C35.9406699,24.6949664 35.9818656,25.6192672 36.2046277,26.4142953 C36.4487506,27.2093233 36.8332441,27.865383 37.3611599,28.3808585 C37.8890756,28.9189567 38.5390528,29.3261662 39.3095656,29.6073346 C40.1014392,29.8642644 40.9848589,29.9935373 41.9582988,29.9935373 C43.1560267,29.9935373 43.4947472,29.9935373 44.7824954,29.9935373 C45.8017084,29.9935373 46.1907793,30.0581737 46.6622416,29.7786212 C47.0619928,29.5426982 47.2069408,29.3245503 47.3427341,29.0595409 C47.7623203,28.2418902 47.9301548,26.092729 47.9301548,26.092729" id="Fill-11" fill="#386CEB"></path>
                <path d="M74.022,17.873 C74.01,17.961 73.992,18.041 73.978,18.127 C73.996,18.029 74.012,17.941 74.022,17.873" id="Fill-13" fill="#386CEB"></path>
                <g transform="translate(60, 8)">
                    <mask id="mask-8" fill="white">
                        <use xlink:href="#path-7"></use>
                    </mask>
                    <g id="Clip-16"></g>
                    <path d="M18.7857875,0.590125338 L15.5089202,0.530634118 L15.1370106,3.17955897 C13.9072088,1.10206294 12.1257931,0.0437454491 9.79120089,0.00147537175 C7.52692778,-0.0392291472 5.51736586,0.762336764 3.75938983,2.40460755 C2.00141381,4.04844389 0.899748839,6.45157606 0.454394914,9.61400407 C0.0996744188,12.1376842 0.384075873,14.2574503 1.30603663,15.9717368 C2.48583387,18.1416008 4.3438192,19.2500162 6.8799926,19.2954173 C9.15520424,19.3361219 11.0928845,18.5752605 12.963371,16.3412086 C12.571147,19.1842627 12.0914149,21.6500172 9.6708772,22.6989414 C7.99884667,23.4222293 5.57362109,22.5110743 5.20327414,21.2069642 L1.2325923,20.6449287 C0.401264972,20.5275118 -0.242544913,21.36352 0.0887359013,22.1353403 C0.899748839,24.0171415 2.90306018,26.7850488 7.49098694,26.9854403 C12.4930147,27.2046185 16.8262303,25.0097056 17.801321,17.5498197 C17.8482003,17.1803479 17.946647,16.4648877 18.0763466,15.5318149 C18.188857,14.7208556 17.5700495,13.992871 16.7527859,13.9787809 L12.1445448,13.8958064 C12.1382942,13.900503 12.1336063,13.9067653 12.1289183,13.9114619 C11.152265,14.850797 10.055288,15.3095056 8.83486194,15.2875878 C7.69725612,15.2672355 6.80498563,14.7850435 6.1596131,13.8410118 C5.51424056,12.8969801 5.3329737,11.4237896 5.61424987,9.42144039 C5.88302487,7.51459023 6.47057952,6.10245654 7.37847647,5.18660486 C8.28481077,4.27075318 9.3364711,3.82300348 10.5334574,3.84492129 C11.7663846,3.86683911 12.7180356,4.35842446 13.3915358,5.32124288 C14.0634733,6.28406131 14.2619292,7.7415962 13.9869037,9.69697867 C13.9790904,9.75020766 13.9665893,9.81909223 13.9525255,9.89423903 C13.8837691,10.3310298 13.7962609,10.7427717 13.6884384,11.1263335 L13.668124,11.1263335 C13.5321739,11.674279 13.3915358,12.2081344 13.32903,12.4241814 L16.9043625,12.4883693 C17.7138128,12.5024594 18.40919,11.9122438 18.5217005,11.1091124 C18.9451774,8.11419911 19.7421265,3.72593885 19.9874618,1.99912792 C20.0921591,1.26331546 19.5280441,0.604215364 18.7857875,0.590125338" id="Fill-15" fill="#386CEB" mask="url(#mask-8)"></path>
                </g>
                <path d="M74.182,17.213 C74.106,17.601 73.966,18.199 73.818,18.785 L73.844,18.787 C73.982,18.297 74.094,17.769 74.182,17.213" id="Fill-17" fill="#386CEB"></path>
            </g>
        </g>
    </g>
</svg>