<?xml version="1.0" encoding="UTF-8"?>
<svg width="24px" height="25px" viewBox="0 0 24 25" version="1.1" xmlns="http://www.w3.org/2000/svg" xmlns:xlink="http://www.w3.org/1999/xlink">
    <title>suanziguangchang-no</title>
    <g id="页面-1" stroke="none" stroke-width="1" fill="none" fill-rule="evenodd">
        <g id="算子定义" transform="translate(-10, -179)" fill-rule="nonzero">
            <g id="suanziguangchang-no" transform="translate(10, 179.8974)">
                <polygon id="路径" fill-opacity="0" fill="#FFFFFF" points="0 0 20 0 20 20 0 20"></polygon>
                <path d="M9.45819025,16.3657754 C9.56219809,16.3657754 9.66513009,16.3869149 9.76081731,16.4278497 L15.0368304,18.693562 L15.9091687,18.692824 C16.144589,17.5674279 17.1511407,16.7216117 18.3571429,16.7216117 C19.7378547,16.7216117 20.8571429,17.83024 20.8571429,19.1978022 C20.8571429,20.5653644 19.7378547,21.6739927 18.3571429,21.6739927 C17.3544131,21.6739927 16.4895651,21.0892731 16.0911939,20.2452997 L14.8784341,20.2454205 C14.7739926,20.2455679 14.6706054,20.2244511 14.5745192,20.1833454 L9.30108173,17.9176331 L3.77266484,17.9176331 C3.39419892,17.9175652 3.07148752,17.6422112 3.0103022,17.2671461 L3,17.1417042 C3,16.7131706 3.34593383,16.3657754 3.77266484,16.3657754 L9.45819025,16.3657754 Z M18.3571428,18.207326 C17.9734503,18.207326 17.6402292,18.4213619 17.4725435,18.7354655 C17.7387317,18.8236844 17.9423876,19.0540361 17.9896978,19.344049 L18,19.4694908 C18,19.6784493 17.9177487,19.8681159 17.7839854,20.0076214 C17.945027,20.1217596 18.1432421,20.1882784 18.3571428,20.1882784 C18.9094276,20.1882784 19.3571428,19.7448271 19.3571428,19.1978022 C19.3571428,18.6507773 18.9094276,18.207326 18.3571428,18.207326 Z M12.2857143,12.3882784 C13.0746925,12.3882784 13.7142857,13.0278716 13.7142857,13.8168498 C13.7142857,13.8681092 13.711586,13.9187379 13.706321,13.9686017 C13.7065043,13.9729059 13.7065591,13.9782834 13.7065591,13.9836738 C13.7065591,14.1295301 13.666484,14.2659869 13.5967882,14.3825457 C13.3789589,14.8900234 12.8738404,15.2454212 12.2857143,15.2454212 C11.8586441,15.2454212 11.4753438,15.05802 11.2135603,14.7609646 L3.77266484,14.7596026 C3.34593383,14.7596026 3,14.4122074 3,13.9836738 C3,13.5551401 3.34593383,13.2077449 3.77266484,13.2077449 L10.9933068,13.207374 C11.2220167,12.7232394 11.7147483,12.3882784 12.2857143,12.3882784 Z M18.3571429,3.1025641 C19.2503068,3.1025641 20.0756244,3.57452333 20.5222064,4.34065933 C20.9687884,5.10679534 20.9687884,6.05071382 20.5222064,6.81684983 C20.0756244,7.58298583 19.2503068,8.05494505 18.3571429,8.05494505 C17.3869897,8.05494505 16.5459049,7.507601 16.1314865,6.70767686 L11.2868304,6.70712462 L11.286,7.3875641 L13.2506868,7.38827839 C13.3179357,7.38827839 13.383178,7.39690589 13.445376,7.41311885 L13.5767048,7.39481799 L13.7142857,7.38827839 C14.5032639,7.38827839 15.1428571,8.0278716 15.1428571,8.81684982 C15.1428571,9.60582803 14.5032639,10.2454212 13.7142857,10.2454212 C12.9253075,10.2454212 12.2857143,9.60582803 12.2857143,8.81684982 L12.291,8.9395641 L11.286,8.9395641 L11.2868304,11.6574267 C11.2874974,12.0154812 11.0138241,12.32127 10.6403674,12.3797518 L10.5141655,12.3882784 L3.77266484,12.3882784 C3.34593383,12.3882784 3,12.0610649 3,11.6574267 C3,11.2537885 3.34593383,10.926575 3.77266484,10.926575 L9.74150069,10.926575 L9.741,8.9395641 L3.77266484,8.94013612 C3.34593383,8.94013612 3,8.59274093 3,8.16420725 C3,7.73567357 3.34593383,7.38827839 3.77266484,7.38827839 L9.741,7.3875641 L9.74150069,5.97627293 C9.74156834,5.61828789 10.015764,5.31304018 10.3892514,5.25516593 L10.5141655,5.24542125 L15.8796782,5.24485001 C16.0442951,4.0351989 17.0907574,3.1025641 18.3571429,3.1025641 Z M18.3571428,4.58827839 C17.9150938,4.58827839 17.5400363,4.87237148 17.407925,5.26627877 C17.7485904,5.34361193 18,5.63217133 18,5.97627293 C18,6.14493605 17.9395984,6.30025505 17.8381394,6.42393245 C17.9890351,6.51660368 18.166884,6.56923077 18.3571428,6.56923077 C18.9094276,6.56923077 19.3571428,6.12577947 19.3571428,5.57875458 C19.3571428,5.03172969 18.9094276,4.58827839 18.3571428,4.58827839 Z" id="形状结合" fill="#386CEB"></path>
            </g>
        </g>
    </g>
</svg>