<?xml version="1.0" encoding="UTF-8"?>
<svg width="28px" height="28px" viewBox="0 0 28 28" version="1.1" xmlns="http://www.w3.org/2000/svg" xmlns:xlink="http://www.w3.org/1999/xlink">
    <title>shouqi@2x</title>
    <g id="1920" stroke="none" stroke-width="1" fill="none" fill-rule="evenodd">
        <g id="GroundTruch" transform="translate(-272, -185)">
            <g id="shouqi" transform="translate(272, 185)">
                <rect id="矩形" fill="currentColor" opacity="0" x="0" y="0" width="28" height="28"></rect>
                <g id="shouqidaohang-2" transform="translate(5, 5)" fill="#B5B5B5" fill-rule="nonzero">
                    <path d="M0,4.88571427 C0,2.18740879 2.18740879,0 4.88571427,0 L13.1142857,0 C15.8125912,0 18,2.18740879 18,4.88571427 L18,13.1142857 C18,15.8125912 15.8125912,18 13.1142857,18 L4.88571427,18 C2.18740879,18 0,15.8125912 0,13.1142857 L0,4.88571427 L0,4.88571427 Z M4.88571427,1.54285714 C3.03950527,1.54285714 1.54285714,3.03950527 1.54285714,4.88571427 L1.54285714,13.1142857 C1.54285714,14.9604947 3.03950527,16.4571429 4.88571427,16.4571429 L13.1142857,16.4571429 C14.9604947,16.4571429 16.4571429,14.9604947 16.4571429,13.1142857 L16.4571429,4.88571427 C16.4571429,3.03950527 14.9604947,1.54285714 13.1142857,1.54285714 L4.88571427,1.54285714 Z" id="形状"></path>
                    <path d="M6.68571428,0.771428572 L6.68571428,17.2285714 L5.14285714,17.2285714 L5.14285714,0.771428572 L6.68571428,0.771428572 Z M12.6102857,5.34857142 C12.7603389,5.48768686 12.8489751,5.68071843 12.8566911,5.88519224 C12.8644071,6.08966605 12.7905707,6.28882866 12.6514286,6.43885714 L10.0913143,9.20160001 L12.6082286,11.5179429 C12.8110738,11.7046192 12.8989198,11.9853319 12.8386759,12.2543392 C12.7784321,12.5233465 12.5792507,12.7397798 12.3161616,12.8221107 C12.0530725,12.9044416 11.7660452,12.8401621 11.5632,12.6534857 L8.47748571,9.81257144 C8.3268353,9.67370204 8.23761832,9.48060577 8.229514,9.27587528 C8.22140969,9.07114478 8.29508387,8.87160042 8.43428571,8.72125713 L11.52,5.38971428 C11.6591154,5.23966107 11.852147,5.15102489 12.0566208,5.14330889 C12.2610946,5.1355929 12.4602572,5.20942929 12.6102857,5.34857142 L12.6102857,5.34857142 Z" id="形状"></path>
                </g>
            </g>
        </g>
    </g>
</svg>