<?xml version="1.0" encoding="UTF-8"?>
<svg width="24px" height="24px" viewBox="0 0 24 24" version="1.1" xmlns="http://www.w3.org/2000/svg" xmlns:xlink="http://www.w3.org/1999/xlink">
    <title>tiaoshi</title>
    <g id="1920" stroke="none" stroke-width="1" fill="none" fill-rule="evenodd">
        <g id="测试结果调试" transform="translate(-1822, -229)">
            <g id="tiaoshi" transform="translate(1822, 229)">
                <rect id="矩形备份-3" fill="#EEEEEE" x="0" y="0" width="24" height="24" rx="4"></rect>
                <g id="caozuo-tiaoshi" transform="translate(4.8, 4.8)" fill="#666666" fill-rule="nonzero">
                    <path d="M6.83405357,0.0266650719 C5.56828505,0.211956574 4.62857143,1.31610907 4.62857143,2.61811348 L4.62857143,2.9673053 L9.77142857,2.9673053 L9.77142857,2.61811348 C9.77142857,1.85873579 9.44758693,1.13677302 8.88392088,0.63948838 C8.32025483,0.142203735 7.57229714,-0.0814038651 6.83405357,0.0266650719 Z M13.001625,2.37708276 C12.825276,2.32444599 12.6347422,2.37160324 12.5018036,2.50078895 L11.0349643,3.92717373 L3.36503571,3.92717373 L1.89771429,2.50127985 C1.76484977,2.37219956 1.57444249,2.32509392 1.39821705,2.37770716 C1.2219916,2.4303204 1.08672082,2.57465931 1.0433599,2.75635284 C1,2.93804636 1.05513548,3.12949092 1.188,3.2585712 L2.57142857,4.60363061 L2.57142857,7.50565356 L0.514285714,7.50565356 C0.230253557,7.50565356 0,7.74008806 0,8.02927766 C0,8.31846727 0.230253557,8.55290177 0.514285714,8.55290177 L2.57142857,8.55290177 L2.57142857,9.16341474 C2.57142857,10.0300126 2.80128214,10.8422191 3.20191071,11.5396864 L1.188,13.497386 C1.05504934,13.6265539 0.999879209,13.8181263 1.04327165,13.9999396 C1.0866641,14.1817529 1.22202678,14.3261854 1.39836988,14.3788308 C1.57471298,14.4314761 1.76524578,14.3843362 1.89819643,14.2551682 L3.82210714,12.3853393 C4.57466657,13.2052917 5.59065041,13.7238718 6.68619643,13.8472323 L6.68619643,7.59254244 C6.68619644,7.30335284 6.91644999,7.06891836 7.20048214,7.06891836 C7.48451429,7.06891836 7.71476785,7.30335284 7.71476786,7.59254244 L7.71476786,13.8472323 C8.81018302,13.7234213 9.82602143,13.2049154 10.5788571,12.3853393 L12.5027679,14.2551682 C12.7101625,14.4408154 13.0244817,14.4267846 13.2151231,14.2233695 C13.4057644,14.0199545 13.4048119,13.699622 13.2129643,13.497386 L11.1985714,11.5396864 C11.6123004,10.8186965 11.8297674,9.99844126 11.8285714,9.16341474 L11.8285714,8.55241087 L13.8857143,8.55241087 C14.1697464,8.55241087 14.4,8.31797637 14.4,8.02878677 C14.4,7.73959716 14.1697464,7.50516267 13.8857143,7.50516267 L11.8285714,7.50516267 L11.8285714,4.60313972 L13.212,3.2585712 C13.3449865,3.12941048 13.4001798,2.93781739 13.3567835,2.75598301 C13.3133871,2.57414862 13.1779961,2.42970697 13.001625,2.37708276 Z" id="形状"></path>
                </g>
            </g>
        </g>
    </g>
</svg>