<?xml version="1.0" encoding="UTF-8"?>
<svg width="30px" height="30px" viewBox="0 0 30 30" version="1.1" xmlns="http://www.w3.org/2000/svg" xmlns:xlink="http://www.w3.org/1999/xlink">
    <title>编组 8</title>
    <defs>
        <circle id="path-1" cx="15" cy="15" r="14.2222222"></circle>
    </defs>
    <g id="1920" stroke="none" stroke-width="1" fill="none" fill-rule="evenodd">
        <g id="首页" transform="translate(-1874, -13)">
            <g id="编组-6" transform="translate(1874, 13)">
                <mask id="mask-2" fill="white">
                    <use xlink:href="#path-1"></use>
                </mask>
                <use id="蒙版" fill="#FFFFFF" xlink:href="#path-1"></use>
                <g id="morentouxiang" mask="url(#mask-2)" fill="#386CEB" fill-rule="nonzero">
                    <g transform="translate(1, 1)" id="形状">
                        <path d="M14,0 C6.23,0 0,6.3 0,14 C0,21.7 6.3,28 14,28 C21.7,28 28,21.7 28,14 C28,6.3 21.7,0 14,0 Z M9.94,8.82 C10.29,7.28 11.55,6.02 13.09,5.67 C16.17,4.97 18.83,7.63 18.13,10.71 C17.78,12.25 16.52,13.51 14.98,13.86 C11.9,14.56 9.24,11.9 9.94,8.82 Z M19.32,21 L8.68,21 C7.7,21 7,20.09 7.35,19.18 C8.12,17.01 10.22,15.4 12.67,15.4 L15.47,15.4 C17.92,15.4 20.02,17.01 20.79,19.18 C21,20.09 20.3,21 19.32,21 Z"></path>
                    </g>
                </g>
            </g>
        </g>
    </g>
</svg>