<?xml version="1.0" encoding="UTF-8"?>
<svg width="231px" height="27px" viewBox="0 0 231 27" version="1.1" xmlns="http://www.w3.org/2000/svg" xmlns:xlink="http://www.w3.org/1999/xlink">
    <title>编组 10@2x</title>
    <g id="页面-1" stroke="none" stroke-width="1" fill="none" fill-rule="evenodd">
        <g id="代码生成-迭代暂停-有迭代结果" transform="translate(-20, -36)">
            <g id="编组-10" transform="translate(20, 36.2926)">
                <g id="编组-2备份-6" transform="translate(0, 1.1595)" fill="#245CC0">
                    <path d="M5.5146775,1.71313585 L17.1313585,1.71313585 L16.9507601,3.53804542 C16.8751659,3.90916256 16.6982709,4.21678221 16.4194218,4.46176243 C16.1403548,4.70652813 15.805518,4.82901824 15.4138221,4.82901824 L8.39553771,4.82901824 C7.38884873,4.82901824 6.53334828,5.55344748 6.38281331,6.5337974 L5.94406161,9.39118489 L13.1403302,9.39118489 L12.6882896,12.573568 L5.49202101,12.573568 L4.22630732,20.9859142 L0,20.9859142 L2.41836276,4.36158225 C2.5388343,3.59017343 2.88913854,2.95605651 3.46927547,2.45880244 C4.04919454,1.96176289 4.73106784,1.71313585 5.5146775,1.71313585" id="Fill-42"></path>
                    <path d="M15.8465066,20.9859142 L18.4678629,1.61073447 C18.5538124,1.13370346 18.7611268,0.745954015 19.0908415,0.447486147 C19.4203491,0.149233934 19.8068112,0 20.2512634,0 L22.2707661,0 L19.6371904,19.3415374 C19.5085768,20.2848166 18.7331673,20.9859142 17.8181675,20.9859142 L15.8465066,20.9859142 Z" id="Fill-43"></path>
                    <path d="M64.8197537,15.3329361 C63.7672765,16.6214905 62.4853069,17.265983 60.9734082,17.265983 C59.6910019,17.265983 58.6446387,16.7792771 57.8343186,15.8054348 C57.0237802,14.832023 56.6187294,13.5794172 56.6187294,12.0469718 C56.6187294,10.2290897 57.1508636,8.66822976 58.2155687,7.36525286 C59.2796187,6.06270649 60.5439014,5.41089516 62.0073251,5.41089516 C63.2777218,5.41089516 64.3236483,5.89781631 65.1464146,6.87122809 C65.9809722,7.84507039 66.3982511,9.08346888 66.3982511,10.5864236 C66.3982511,12.4482189 65.8722308,14.0303897 64.8197537,15.3329361 M67.6404798,4.10275199 C66.1812049,2.50981807 64.3011576,1.71313585 61.9992459,1.71313585 C59.320233,1.71313585 57.1002049,2.71819105 55.3391617,4.72808618 C53.5656722,6.72334355 52.6789274,9.23178395 52.6789274,12.2538379 C52.6789274,14.7853113 53.4335666,16.8767904 54.9428451,18.5291365 C56.4523419,20.1666295 58.3640509,20.9859142 60.6786273,20.9859142 C63.3449755,20.9859142 65.5335603,19.9881779 67.2443816,17.993351 C68.9547661,16.0133772 69.8102859,13.4453094 69.8102859,10.2887171 C69.8102859,7.75788955 69.0868716,5.69611643 67.6404798,4.10275199" id="Fill-44"></path>
                    <path d="M80.9660012,11.694863 C81.28224,12.0958244 81.5227381,12.5713083 81.6885839,13.1208853 C81.8389768,13.6704623 81.8613943,14.3239843 81.7564892,15.0814513 C81.605661,16.0470231 81.2896399,16.9011332 80.8079907,17.6435668 C80.3261239,18.3866448 79.7317344,19.0027981 79.0243869,19.4928859 C78.3015866,19.9831885 77.4962988,20.3540832 76.6083057,20.6070733 C75.7050774,20.8594191 74.7641964,20.9859142 73.7858805,20.9859142 C73.123368,20.9859142 72.5213609,20.9337269 71.9794239,20.8297819 C71.4224694,20.7254074 70.932985,20.5993418 70.5118412,20.450941 C70.1054973,20.3023254 69.7668411,20.1466227 69.495655,19.9831885 C69.239704,19.8197543 69.0590584,19.6784406 68.953718,19.559677 L69.2699567,18.8245453 C69.5259077,18.2601497 69.9170164,17.8370678 70.4441535,17.5546552 C70.9708553,17.2726722 71.5280274,17.2204849 72.115017,17.3987377 C72.2053398,17.4285897 72.2802098,17.4507102 72.3407152,17.4655288 C72.8676347,17.628963 73.4924945,17.7105727 74.2148595,17.7105727 C74.6812736,17.7105727 75.1102526,17.6512983 75.5020142,17.5321052 C75.893123,17.4285897 76.2391791,17.2726722 76.5404003,17.0643526 C76.8263863,16.871496 77.0599198,16.6262373 77.2405655,16.3292209 C77.4209935,16.0322045 77.5413514,15.6980342 77.6018568,15.32671 C77.6617092,14.91093 77.5940215,14.5542096 77.398576,14.2571932 C77.2026952,13.9449287 76.9319443,13.6704623 76.5856705,13.4327204 C76.2391791,13.2100117 75.8406704,12.9948198 75.3890563,12.7865003 C74.9374422,12.5786103 74.4705928,12.3559016 73.9889436,12.1181597 C73.5070768,11.895451 73.0480627,11.6355885 72.6119014,11.3383574 C72.1748695,11.0565891 71.7911607,10.7071707 71.4601221,10.2911759 C71.1438834,9.89021446 70.9105675,9.40764334 70.7601746,8.84281821 C70.5943288,8.29367074 70.5719113,7.63241729 70.6924869,6.85991691 C70.8278623,6.04317548 71.1214659,5.33037906 71.57308,4.72109811 C72.0244765,4.05254274 72.5664135,3.49566382 73.1988909,3.05003183 C73.8459506,2.60439984 74.5759332,2.27022953 75.3890563,2.04730615 C76.216544,1.82459754 77.0673197,1.71313585 77.940513,1.71313585 C78.3921271,1.71313585 78.8435236,1.75050451 79.2951377,1.82459754 C79.7317344,1.88430149 80.1380783,1.97321312 80.5143871,2.09197674 C80.8904783,2.21116987 81.2219522,2.33702064 81.5079382,2.47081762 C81.6130609,2.53030681 81.7225366,2.58979599 81.8354945,2.64907042 C81.9484524,2.7085596 82.0799103,2.79038408 82.2305208,2.89411432 L81.6885839,4.05254274 C81.1466469,5.07760371 80.2510362,5.3821368 79.0017518,4.96614202 L78.9791167,4.96614202 C78.5122674,4.81795596 78.0456357,4.71379619 77.5792217,4.654307 C77.1276075,4.654307 76.7212636,4.71379619 76.3599723,4.8325598 C76.0587511,4.9365048 75.8028001,5.07030178 75.5923371,5.23352121 C75.351186,5.41177401 75.1553052,5.62739546 75.0051299,5.87974129 C74.8695368,6.11748328 74.779214,6.37756055 74.7341614,6.65954359 C74.6738736,7.07553837 74.7415613,7.43204396 74.9374422,7.72884561 C75.1178702,8.04089538 75.3890563,8.30827458 75.75013,8.5309832 C76.1114213,8.76872518 76.5179828,8.99164856 76.969597,9.19953857 C77.436011,9.40764334 77.9100426,9.62283527 78.3921271,9.84554388 C78.8735587,10.0832859 79.340408,10.3504503 79.7920221,10.6476815 C80.2436363,10.930094 80.634745,11.2792977 80.9660012,11.694863" id="Fill-45"></path>
                    <path d="M32.3273167,11.1922272 C32.3839031,10.7572174 32.3429551,10.2495252 32.3147648,9.93427867 C32.2721707,9.60427871 32.1723729,9.33437737 32.0157829,9.12392375 C31.8452006,8.91412102 31.6104185,8.75660625 31.3114366,8.65137944 C31.0126605,8.54658656 30.6352807,8.49386467 30.1801203,8.49386467 C29.5679585,8.49386467 29.0127945,8.56915065 28.5150401,8.71885478 C28.0166683,8.85380545 27.5682983,9.01153718 27.1701359,9.19139909 C26.9137481,9.29684286 26.6717641,9.28946613 26.4441839,9.16905195 C26.2166037,9.04907169 26.0670099,8.84642872 25.9960197,8.56134001 L25.6970378,7.03066961 C25.853422,6.89571894 26.0882041,6.75317458 26.4015898,6.60303654 C26.7713561,6.42295767 27.19133,6.25806617 27.6611,6.10792813 C28.1306641,5.94303663 28.6430282,5.81524572 29.1979864,5.72520629 C29.7531503,5.6204134 30.3151046,5.56769152 30.8846724,5.56769152 C31.8947909,5.56769152 32.7485252,5.67291833 33.4460811,5.88272106 C34.1434312,6.09317468 34.6913932,6.41558094 35.0899672,6.85059074 C35.5025334,7.28603447 35.7657116,7.84883518 35.8797074,8.53877591 C36.0079013,9.21396319 36.0079013,10.0243181 35.8797074,10.9696237 L34.1806753,20.9859142 L32.3384282,20.9859142 C31.9824483,20.9859142 31.6904626,20.8472751 31.4630882,20.5695631 C31.2353022,20.2918512 31.1499082,19.8980642 31.2069061,19.3879854" id="Fill-46"></path>
                    <path d="M28.5308148,18.2905121 C27.9773834,18.2993276 27.8127365,18.2823417 27.2911453,18.2823417 C26.6681684,18.2823417 26.2043921,18.126028 25.9004447,17.8136155 C25.5960784,17.4870123 25.4798201,17.0408625 25.5525078,16.4753809 C25.5960784,16.1335119 25.6972546,15.8361503 25.8568741,15.5832962 C26.0162841,15.3302271 26.2404217,15.1072597 26.5305437,14.9139639 C26.8202468,14.7355039 27.1826375,14.6015515 27.6172969,14.5125365 C28.0517468,14.4230915 28.5733381,14.378369 29.1816518,14.378369 L29.8653762,14.378369 L30.5943471,14.378369 L32.2781023,14.378369 L32.5495812,11.991951 L31.6253801,11.991951 L30.5943471,11.991951 L29.6383059,11.991951 C28.4648304,11.991951 27.4216478,12.0809659 26.5087584,12.2594259 C25.5960784,12.4378858 24.8208137,12.7133162 24.1833831,13.0848569 C23.5314987,13.4714484 23.0170296,13.9547954 22.6406041,14.5346827 C22.2637597,15.1145701 22.0176273,15.7989532 21.9017879,16.5869722 C21.8001928,17.3156478 21.8291003,17.9553084 21.9887198,18.5053091 C22.1623741,19.0550948 22.4376234,19.5089851 22.8142584,19.865905 C23.1911028,20.2374457 23.6544602,20.5201865 24.2053779,20.7136972 C24.7703304,20.8919422 25.4006388,20.9813872 26.0958844,20.9813872 C26.9505399,20.9813872 27.1920639,20.9811722 28.1112376,20.9813872 C28.8393706,20.9816022 29.1171336,21.0258946 29.4535495,20.8328139 C29.7390631,20.6689747 29.8417056,20.5184664 29.9386922,20.3350611 C30.2380312,19.7700096 30.3582695,18.2823417 30.3582695,18.2823417" id="Fill-47"></path>
                    <path d="M47.3500042,12.9217554 C47.3362991,13.0194042 47.3157415,13.108059 47.3007516,13.2035663 C47.3217375,13.0947822 47.3392971,12.9967051 47.3500042,12.9217554" id="Fill-48"></path>
                    <path d="M50.9383608,5.98915245 L48.5529035,5.94724039 L48.2811176,7.83758172 C47.3867626,6.3549695 46.0895431,5.59861803 44.3898966,5.56874225 C42.7414561,5.53972621 41.2779263,6.11166462 39.9977754,7.28477241 C38.7178433,8.45745033 37.9160531,10.1728357 37.591967,12.4307135 C37.3333109,14.2318574 37.5398857,15.7445604 38.2116914,16.9686074 C39.0708149,18.5178491 40.4233982,19.3088049 42.270098,19.3414748 C43.9268539,19.3704908 45.3376459,18.8267087 46.6987636,17.232331 C46.4140668,19.2613045 46.0645965,21.021611 44.3019272,21.769795 C43.0847991,22.2864955 41.3181909,21.6358913 41.0488121,20.7058735 L38.1578594,20.3041625 C37.5527966,20.2199085 37.0836268,20.817424 37.3256519,21.3685139 C37.9156154,22.7112043 39.3741121,24.6864444 42.7147589,24.8300201 C46.3567335,24.9862769 49.512032,23.4202704 50.2210386,18.0952895 C50.2562701,17.8309212 50.3276084,17.3208836 50.4221427,16.6541595 C50.5042036,16.0755582 50.052759,15.5564934 49.4582,15.5459617 L46.102454,15.4868549 C46.0985151,15.4905088 46.0952326,15.4948075 46.0915125,15.4984613 C45.3809741,16.1684095 44.5813721,16.4955385 43.6927067,16.4800633 C42.8644381,16.4654478 42.2151718,16.121339 41.7457832,15.4475221 C41.2755192,14.774135 41.1433463,13.7224647 41.3486081,12.2933709 C41.5440226,10.9315514 41.9718337,9.9243724 42.6324791,9.27032935 C43.2924681,8.61650122 44.0585891,8.29689491 44.9304047,8.31215519 C45.8276045,8.32806028 46.5206366,8.67947678 47.0105952,9.36640468 C47.5001162,10.0533326 47.6447623,11.0938263 47.4443147,12.4893904 C47.438844,12.5272187 47.429872,12.5762236 47.4191494,12.6308168 C47.3688186,12.9416108 47.3057958,13.2362848 47.2265797,13.5101103 L47.2125746,13.5098953 C47.1130073,13.9012895 47.0105952,14.281937 46.9659541,14.4362593 L49.5687087,14.4820402 C50.1580158,14.492357 50.663949,14.0708721 50.7464476,13.4976441 C51.0543403,11.360344 51.6344565,8.22768627 51.81324,6.99547174 C51.8893925,6.46952913 51.4790878,5.99860953 50.9383608,5.98915245" id="Fill-49"></path>
                    <path d="M47.5275279,12.8485189 C47.4435843,13.0602524 47.2859758,13.3852875 47.1232279,13.7048774 L47.150638,13.7050868 C47.3056768,13.4384827 47.4290226,13.1513544 47.5275279,12.8485189" id="Fill-50"></path>
                </g>
                <g id="KernelGen" transform="translate(105.1267, 0)" fill="#245CC0" fill-rule="nonzero">
                    <polygon id="路径" points="0 19.5757406 0 0.264027329 2.33852777 0.264027329 2.33852777 9.84444756 2.56483691 9.84444756 11.2400206 0.264027329 14.295194 0.264027329 6.18578314 8.9769292 14.295194 19.5757406 11.4663297 19.5757406 4.75249193 10.5988114 2.33852777 13.314521 2.33852777 19.5757406"></polygon>
                    <path d="M22.0274229,19.8774861 C20.6318499,19.8774861 19.4295826,19.5678826 18.420621,18.9486757 C17.4116594,18.3294687 16.6352933,17.4619503 16.0915228,16.3461205 C15.5477522,15.2302908 15.2758669,13.9305848 15.2758669,12.4470027 C15.2758669,10.9634205 15.5477522,9.65428502 16.0915228,8.51959614 C16.6352933,7.38490726 17.3959435,6.4985298 18.3734733,5.86046376 C19.351003,5.22239771 20.4935498,4.90336469 21.8011138,4.90336469 C22.5554776,4.90336469 23.3004118,5.02909199 24.0359165,5.28054659 C24.7714212,5.53200119 25.4409191,5.93904332 26.0444101,6.50167298 C26.6479012,7.06430265 27.1288081,7.80766531 27.4871309,8.73176096 C27.8454537,9.65585661 28.0246151,10.7936887 28.0246151,12.1452571 L28.0246151,13.0882119 L16.8600309,13.0882119 L16.8600309,11.1645842 L25.7615237,11.1645842 C25.7615237,10.3473568 25.5996498,9.61813842 25.275902,8.9769292 C24.9521542,8.33571997 24.4932496,7.82966759 23.8991881,7.45877205 C23.3051266,7.08787652 22.6057685,6.90242875 21.8011138,6.90242875 C20.9147363,6.90242875 20.1493714,7.12087994 19.505019,7.5577823 C18.8606665,7.99468467 18.3656153,8.56202911 18.0198652,9.25981562 C17.6741152,9.95760213 17.5012401,10.7056796 17.5012401,11.5040479 L17.5012401,12.7864664 C17.5012401,13.8802939 17.6914027,14.8059611 18.0717277,15.5634681 C18.4520528,16.3209751 18.9816791,16.8961775 19.6606065,17.2890753 C20.3395339,17.6819731 21.1284727,17.878422 22.0274229,17.878422 C22.6120548,17.878422 23.1416811,17.7951277 23.6163017,17.628539 C24.0909222,17.4619503 24.5011075,17.2104957 24.8468576,16.8741752 C25.1926077,16.5378547 25.4597782,16.1182398 25.6483691,15.6153306 L27.798306,16.2188217 C27.5719968,16.94804 27.1916717,17.5876776 26.6573307,18.1377346 C26.1229897,18.6877915 25.4629214,19.1152643 24.6771257,19.420153 C23.8913301,19.7250417 23.0080958,19.8774861 22.0274229,19.8774861 Z" id="路径"></path>
                    <path d="M31.4192522,19.5757406 L31.4192522,5.09195564 L33.569189,5.09195564 L33.569189,7.27961065 L33.7200618,7.27961065 C33.9840891,6.56296504 34.4618528,5.98147628 35.153353,5.53514437 C35.8448531,5.08881245 36.6243624,4.8656465 37.4918808,4.8656465 C37.6553263,4.8656465 37.8596331,4.86878968 38.1048013,4.87507604 C38.3499696,4.88136241 38.5354173,4.89079196 38.6611446,4.90336469 L38.6611446,7.16645608 C38.5857083,7.14759699 38.4144048,7.11773675 38.1472343,7.07687538 C37.8800638,7.03601401 37.598749,7.01558332 37.3032898,7.01558332 C36.5992169,7.01558332 35.972152,7.16174131 35.4220951,7.45405728 C34.8720382,7.74637325 34.438279,8.14870061 34.1208175,8.66103936 C33.8033561,9.1733781 33.6446254,9.75643845 33.6446254,10.4102204 L33.6446254,19.5757406 L31.4192522,19.5757406 Z" id="路径"></path>
                    <path d="M43.5267911,10.8628387 L43.5267911,19.5757406 L41.3014179,19.5757406 L41.3014179,5.09195564 L43.4513548,5.09195564 L43.4513548,7.35504703 L43.6399457,7.35504703 C43.9794094,6.61954233 44.4948914,6.02705243 45.1863915,5.57757733 C45.8778916,5.12810224 46.7705555,4.90336469 47.864383,4.90336469 C48.8450559,4.90336469 49.7031447,5.10295678 50.4386494,5.50214095 C51.1741541,5.90132513 51.7462134,6.50481617 52.1548271,7.31261407 C52.5634408,8.12041197 52.7677477,9.14037469 52.7677477,10.3725022 L52.7677477,19.5757406 L50.5423745,19.5757406 L50.5423745,10.523375 C50.5423745,9.38554292 50.2469153,8.49759387 49.655997,7.85952782 C49.0650787,7.22146177 48.2541376,6.90242875 47.2231738,6.90242875 C46.5128145,6.90242875 45.8794632,7.05644469 45.3231199,7.36447658 C44.7667766,7.67250846 44.3283027,8.12198356 44.0076981,8.71290187 C43.6870935,9.30382018 43.5267911,10.0204658 43.5267911,10.8628387 Z" id="路径"></path>
                    <path d="M62.9139408,19.8774861 C61.5183677,19.8774861 60.3161004,19.5678826 59.3071388,18.9486757 C58.2981773,18.3294687 57.5218112,17.4619503 56.9780406,16.3461205 C56.43427,15.2302908 56.1623848,13.9305848 56.1623848,12.4470027 C56.1623848,10.9634205 56.43427,9.65428502 56.9780406,8.51959614 C57.5218112,7.38490726 58.2824614,6.4985298 59.2599911,5.86046376 C60.2375209,5.22239771 61.3800677,4.90336469 62.6876316,4.90336469 C63.4419954,4.90336469 64.1869297,5.02909199 64.9224344,5.28054659 C65.6579391,5.53200119 66.3274369,5.93904332 66.930928,6.50167298 C67.534419,7.06430265 68.0153259,7.80766531 68.3736487,8.73176096 C68.7319715,9.65585661 68.9111329,10.7936887 68.9111329,12.1452571 L68.9111329,13.0882119 L57.7465487,13.0882119 L57.7465487,11.1645842 L66.6480416,11.1645842 C66.6480416,10.3473568 66.4861677,9.61813842 66.1624199,8.9769292 C65.8386721,8.33571997 65.3797674,7.82966759 64.7857059,7.45877205 C64.1916444,7.08787652 63.4922863,6.90242875 62.6876316,6.90242875 C61.8012542,6.90242875 61.0358892,7.12087994 60.3915368,7.5577823 C59.7471844,7.99468467 59.2521332,8.56202911 58.9063831,9.25981562 C58.560633,9.95760213 58.387758,10.7056796 58.387758,11.5040479 L58.387758,12.7864664 C58.387758,13.8802939 58.5779205,14.8059611 58.9582456,15.5634681 C59.3385707,16.3209751 59.8681969,16.8961775 60.5471243,17.2890753 C61.2260518,17.6819731 62.0149906,17.878422 62.9139408,17.878422 C63.4985727,17.878422 64.0281989,17.7951277 64.5028195,17.628539 C64.9774401,17.4619503 65.3876254,17.2104957 65.7333755,16.8741752 C66.0791255,16.5378547 66.346296,16.1182398 66.534887,15.6153306 L68.6848238,16.2188217 C68.4585147,16.94804 68.0781896,17.5876776 67.5438486,18.1377346 C67.0095075,18.6877915 66.3494392,19.1152643 65.5636436,19.420153 C64.777848,19.7250417 63.8946137,19.8774861 62.9139408,19.8774861 Z" id="路径"></path>
                    <polygon id="路径" points="74.5311432 0.264027329 74.5311432 19.5757406 72.30577 19.5757406 72.30577 0.264027329"></polygon>
                    <path d="M92.1078197,6.29893771 C91.9003697,5.66401485 91.6284844,5.09352723 91.2921639,4.58747485 C90.9558434,4.08142247 90.5566592,3.64923487 90.0946114,3.29091207 C89.6325635,2.93258926 89.1092236,2.65913239 88.5245917,2.47054144 C87.9399598,2.28195049 87.2987505,2.18765501 86.600964,2.18765501 C85.4568456,2.18765501 84.4164522,2.48311417 83.4797838,3.07403248 C82.5431154,3.66495079 81.7981812,4.53561234 81.244981,5.68601713 C80.6917809,6.83642192 80.4151809,8.24771086 80.4151809,9.91988394 C80.4151809,11.592057 80.6949241,13.003346 81.2544106,14.1537508 C81.8138971,15.3041556 82.5714041,16.1748171 83.5269315,16.7657354 C84.482459,17.3566537 85.5574274,17.6521129 86.7518368,17.6521129 C87.858237,17.6521129 88.8341952,17.4148026 89.6797113,16.940182 C90.5252274,16.4655615 91.1852957,15.7929204 91.6599162,14.9222589 C92.1345368,14.0515973 92.3718471,13.0253482 92.3718471,11.8435116 L93.0884927,11.9943844 L87.2798914,11.9943844 L87.2798914,9.91988394 L94.6349385,9.91988394 L94.6349385,11.9943844 C94.6349385,13.5848347 94.2970463,14.967835 93.6212621,16.1433853 C92.9454779,17.3189355 92.0150959,18.2288869 90.8301161,18.8732393 C89.6451363,19.5175917 88.2857098,19.8397679 86.7518368,19.8397679 C85.0419455,19.8397679 83.5410759,19.4374405 82.2492279,18.6327858 C80.9573798,17.8281311 79.9515615,16.6840127 79.2317727,15.2004305 C78.5119839,13.7168484 78.1520895,11.9566662 78.1520895,9.91988394 C78.1520895,8.39229725 78.3579679,7.01715491 78.7697248,5.79445692 C79.1814817,4.57175893 79.7645421,3.52979394 80.5189059,2.66856194 C81.2732697,1.80732993 82.1659335,1.14726161 83.1968974,0.688356966 C84.2278612,0.229452322 85.3625501,0 86.600964,0 C87.6193551,0 88.5701678,0.152444351 89.4534021,0.457333053 C90.3366364,0.762221754 91.1255752,1.19283776 91.8202185,1.74918106 C92.5148619,2.30552436 93.094779,2.96873586 93.5599701,3.73881557 C94.0251611,4.50889528 94.3457657,5.36226933 94.5217839,6.29893771 L92.1078197,6.29893771 Z" id="路径"></path>
                    <path d="M104.40395,19.8774861 C103.008377,19.8774861 101.806109,19.5678826 100.797148,18.9486757 C99.7881862,18.3294687 99.0118201,17.4619503 98.4680495,16.3461205 C97.9242789,15.2302908 97.6523937,13.9305848 97.6523937,12.4470027 C97.6523937,10.9634205 97.9242789,9.65428502 98.4680495,8.51959614 C99.0118201,7.38490726 99.7724702,6.4985298 100.75,5.86046376 C101.72753,5.22239771 102.870077,4.90336469 104.177641,4.90336469 C104.932004,4.90336469 105.676939,5.02909199 106.412443,5.28054659 C107.147948,5.53200119 107.817446,5.93904332 108.420937,6.50167298 C109.024428,7.06430265 109.505335,7.80766531 109.863658,8.73176096 C110.22198,9.65585661 110.401142,10.7936887 110.401142,12.1452571 L110.401142,13.0882119 L99.2365576,13.0882119 L99.2365576,11.1645842 L108.13805,11.1645842 C108.13805,10.3473568 107.976177,9.61813842 107.652429,8.9769292 C107.328681,8.33571997 106.869776,7.82966759 106.275715,7.45877205 C105.681653,7.08787652 104.982295,6.90242875 104.177641,6.90242875 C103.291263,6.90242875 102.525898,7.12087994 101.881546,7.5577823 C101.237193,7.99468467 100.742142,8.56202911 100.396392,9.25981562 C100.050642,9.95760213 99.8777669,10.7056796 99.8777669,11.5040479 L99.8777669,12.7864664 C99.8777669,13.8802939 100.067929,14.8059611 100.448254,15.5634681 C100.82858,16.3209751 101.358206,16.8961775 102.037133,17.2890753 C102.716061,17.6819731 103.504999,17.878422 104.40395,17.878422 C104.988582,17.878422 105.518208,17.7951277 105.992828,17.628539 C106.467449,17.4619503 106.877634,17.2104957 107.223384,16.8741752 C107.569134,16.5378547 107.836305,16.1182398 108.024896,15.6153306 L110.174833,16.2188217 C109.948524,16.94804 109.568198,17.5876776 109.033857,18.1377346 C108.499516,18.6877915 107.839448,19.1152643 107.053652,19.420153 C106.267857,19.7250417 105.384623,19.8774861 104.40395,19.8774861 Z" id="路径"></path>
                    <path d="M116.021152,10.8628387 L116.021152,19.5757406 L113.795779,19.5757406 L113.795779,5.09195564 L115.945716,5.09195564 L115.945716,7.35504703 L116.134307,7.35504703 C116.47377,6.61954233 116.989252,6.02705243 117.680752,5.57757733 C118.372253,5.12810224 119.264916,4.90336469 120.358744,4.90336469 C121.339417,4.90336469 122.197506,5.10295678 122.93301,5.50214095 C123.668515,5.90132513 124.240574,6.50481617 124.649188,7.31261407 C125.057802,8.12041197 125.262109,9.14037469 125.262109,10.3725022 L125.262109,19.5757406 L123.036735,19.5757406 L123.036735,10.523375 C123.036735,9.38554292 122.741276,8.49759387 122.150358,7.85952782 C121.55944,7.22146177 120.748499,6.90242875 119.717535,6.90242875 C119.007176,6.90242875 118.373824,7.05644469 117.817481,7.36447658 C117.261138,7.67250846 116.822664,8.12198356 116.502059,8.71290187 C116.181454,9.30382018 116.021152,10.0204658 116.021152,10.8628387 Z" id="路径"></path>
                </g>
                <line x1="92.509336" y1="0.517104216" x2="92.509336" y2="20.2181665" id="直线备份-32" stroke="#333333" stroke-linecap="square"></line>
            </g>
        </g>
    </g>
</svg>