<?xml version="1.0" encoding="UTF-8"?>
<svg width="28px" height="28px" viewBox="0 0 28 28" version="1.1" xmlns="http://www.w3.org/2000/svg" xmlns:xlink="http://www.w3.org/1999/xlink">
    <title>zengjia</title>
    <g id="1920" stroke="none" stroke-width="1" fill="none" fill-rule="evenodd">
        <g id="算子定义" transform="translate(-1484, -666)">
            <g id="zengjia" transform="translate(1484, 666)">
                <rect id="矩形" fill="#D8D8D8" opacity="0" x="0" y="0" width="28" height="28"></rect>
                <g id="编组-17" transform="translate(2, 2)">
                    <circle id="椭圆形" stroke="#386CEB" fill="#FFFFFF" cx="12" cy="12" r="12"></circle>
                    <path d="M11.6664818,6 C11.007422,6 10.4731484,6.53427353 10.4731484,7.19333334 L10.4731484,10.4733333 L7.19314845,10.4733333 C6.53416086,10.4734354 6,11.0076791 6,11.6666667 C6,12.3256543 6.53416086,12.8598979 7.19314845,12.86 L10.4731484,12.8593333 L10.4731484,16.1406666 C10.4732505,16.7996542 11.0074942,17.3338151 11.6664818,17.3338151 C12.3254694,17.3338151 12.859713,16.7996542 12.8598151,16.1406666 L12.8591484,12.8593333 L16.1404818,12.8593333 C16.7836571,12.8378252 17.2939317,12.3102015 17.2939317,11.6666667 C17.2939317,11.0231318 16.7836571,10.4955081 16.1404818,10.474 L12.8591484,10.4733333 L12.8591484,7.19333334 C12.8591485,6.5345338 12.3252812,6.00036805 11.6664818,6 Z" id="路径" fill="#386CEB"></path>
                </g>
            </g>
        </g>
    </g>
</svg>