<?xml version="1.0" encoding="UTF-8"?>
<svg width="36px" height="36px" viewBox="0 0 36 36" version="1.1" xmlns="http://www.w3.org/2000/svg" xmlns:xlink="http://www.w3.org/1999/xlink">
    <title>daimashengccheng</title>
    <g id="1920" stroke="none" stroke-width="1" fill="none" fill-rule="evenodd">
        <g id="算子定义" transform="translate(-905, -126)">
            <g id="daimashengccheng" transform="translate(905, 126)">
                <circle id="椭圆形备份" fill="currentColor" cx="18" cy="18" r="18"></circle>
                <g id="daimashengcheng" transform="translate(8, 9)" fill="#FFFFFF" fill-rule="nonzero">
                    <path d="M19.047751,16.4502165 L0.952249041,16.4502165 C0.426312837,16.4502897 0,16.8379005 0,17.3160173 C0,17.7941342 0.426312837,18.181745 0.952249041,18.1818182 L19.047751,18.1818182 C19.5736872,18.181745 20,17.7941342 20,17.3160173 C20,16.8379005 19.5736872,16.4502897 19.047751,16.4502165 L19.047751,16.4502165 Z M4.80944814,15.1515152 L15.1905519,15.1515152 C16.4535059,15.1515152 17.6647327,14.6954249 18.5577761,13.8835791 C19.4508195,13.0717334 19.9525261,11.9706342 19.9525261,10.8225108 L19.9525261,4.32900432 C19.9525261,3.18088099 19.4508195,2.0797818 18.5577761,1.267936 C17.6647327,0.45609021 16.4535059,0 15.1905519,0 L4.80944814,0 C3.54649406,0 2.33526728,0.45609021 1.44222388,1.267936 C0.549180487,2.0797818 0.0474739294,3.18088099 0.0474739294,4.32900432 L0.0474739294,10.8225108 C0.0474739294,11.9706342 0.549180478,13.0717334 1.44222388,13.8835791 C2.33526727,14.6954249 3.54649405,15.1515152 4.80944814,15.1515152 Z M1.95226362,4.32900432 C1.95226362,2.89449848 3.2314687,1.73160172 4.80944814,1.73160172 L15.1905519,1.73160172 C16.7685313,1.73160172 18.0477364,2.89449848 18.0477364,4.32900432 L18.0477364,10.8225108 C18.0477364,12.2570167 16.7685313,13.4199134 15.1905519,13.4199134 L4.80944814,13.4199134 C3.2314687,13.4199134 1.95226362,12.2570167 1.95226362,10.8225108 L1.95226362,4.32900432 Z" id="形状"></path>
                    <path d="M5.77863207,9.5808657 C6.16177942,9.91440387 6.78057672,9.91440387 7.16372406,9.5808657 C7.54459842,9.24533703 7.54459842,8.70344567 7.16372406,8.36791701 L5.94562897,7.30121035 L7.22266415,6.18288885 C7.6035385,5.84736019 7.6035385,5.30546883 7.22266415,4.96994016 C7.03821449,4.80708447 6.78713379,4.71548045 6.52520648,4.71548045 C6.26327916,4.71548045 6.01219846,4.80708447 5.8277488,4.96994016 L3.9220194,6.64742239 C3.54114505,6.98295106 3.54114505,7.52484242 3.9220194,7.86037109 L5.77863207,9.5808657 Z M13.6864268,9.5808657 C13.8708764,9.74372139 14.1219571,9.83532541 14.3838844,9.83532541 C14.6458118,9.83532541 14.8968925,9.74372139 15.0813421,9.5808657 L16.9870715,7.90338346 C17.3679459,7.5678548 17.3679459,7.02596344 16.9870715,6.69043477 L15.1304588,4.96994016 C14.8903862,4.72444605 14.5134363,4.61751231 14.1545888,4.69310379 C13.7957413,4.76869527 13.515561,5.01405397 13.4292415,5.32830283 C13.342922,5.64255169 13.4650319,5.97265313 13.7453668,6.18288885 L14.9634619,7.24959551 L13.6864268,8.36791701 C13.3055524,8.70344567 13.3055524,9.24533703 13.6864268,9.5808657 L13.6864268,9.5808657 Z M8.73545964,9.88195224 C8.9607175,9.99754707 9.22925657,10.0298592 9.48176867,9.97175223 C9.73428077,9.9136453 9.94999085,9.76990001 10.0812583,9.57226322 L12.5370951,5.83878995 C12.7125723,5.57140697 12.7118281,5.2423538 12.5351429,4.97558159 C12.3584577,4.70880938 12.0326741,4.54484717 11.6805117,4.54545624 C11.3283493,4.54606871 11.0033099,4.71115966 10.8278327,4.97854264 L8.3719958,8.71201591 C8.10540164,9.1231962 8.2677343,9.64572103 8.73545964,9.88195224 Z" id="形状"></path>
                </g>
            </g>
        </g>
    </g>
</svg>