<?xml version="1.0" encoding="UTF-8"?>
<svg width="36px" height="36px" viewBox="0 0 36 36" version="1.1" xmlns="http://www.w3.org/2000/svg" xmlns:xlink="http://www.w3.org/1999/xlink">
    <title>suanziddingyi</title>
    <g id="1920" stroke="none" stroke-width="1" fill="none" fill-rule="evenodd">
        <g id="算子定义" transform="translate(-360, -44)">
            <g id="suanziddingyi" transform="translate(360, 44)">
                <circle id="椭圆形" fill="currentColor" cx="18" cy="18" r="18"></circle>
                <g id="suanzixuanzhong" transform="translate(8, 9)" fill="#FFFFFF" fill-rule="nonzero">
                    <path d="M16.6075,0.994814815 C14.7633333,0.331604938 12.5608333,0 10,0 C7.43916667,0 5.23666667,0.331604938 3.3925,0.994814815 C1.13083333,1.8091358 0,2.94666667 0,4.40740741 C0,5.86814815 1.13083333,7.00567901 3.3925,7.82 C5.23666667,8.48320988 7.43916667,8.81481481 10,8.81481481 C12.5608333,8.81481481 14.7633333,8.48320988 16.6075,7.82 C18.8691667,7.00567901 20,5.86814815 20,4.40740741 C20,2.94666667 18.8691667,1.8091358 16.6075,0.994814815 Z M4.2325,3.36725926 C5.80666667,2.8014321 7.72916667,2.51851852 10,2.51851852 C12.2708333,2.51851852 14.1929167,2.8014321 15.76625,3.36725926 C16.4320833,3.60651852 16.92875,3.86550617 17.25625,4.14422222 C17.41875,4.28274074 17.5,4.37046914 17.5,4.40740741 C17.5,4.44434568 17.41875,4.53249383 17.25625,4.67185185 C16.92875,4.94888889 16.4320833,5.20745679 15.76625,5.44755556 C14.19375,6.01338272 12.2716667,6.2962963 10,6.2962963 C7.72833333,6.2962963 5.80625,6.01338272 4.23375,5.44755556 C3.56791667,5.2082963 3.07125,4.94930864 2.74375,4.67059259 C2.58125,4.53207407 2.5,4.44434568 2.5,4.40740741 C2.5,4.37046914 2.58125,4.28232099 2.74375,4.14296296 C3.07125,3.86592593 3.56791667,3.60735802 4.23375,3.36725926 L4.2325,3.36725926 Z M2.745,8.44837037 C2.58166667,8.30985185 2.5,8.22212346 2.5,8.18518519 L0,8.18518519 C0,9.64592593 1.13083333,10.7834568 3.3925,11.5977778 C5.23666667,12.2609877 7.43916667,12.5925926 10,12.5925926 C12.5608333,12.5925926 14.7633333,12.2609877 16.6075,11.5977778 C18.8691667,10.7834568 20,9.64592593 20,8.18518519 L17.5,8.18518519 C17.5,8.22212346 17.41875,8.30985185 17.25625,8.44837037 C16.92875,8.72708642 16.4320833,8.98607407 15.76625,9.22533333 C14.19375,9.79116049 12.2716667,10.0740741 10,10.0740741 C7.72833333,10.0740741 5.80625,9.79116049 4.23375,9.22533333 C3.56791667,8.98607407 3.07125,8.72708642 2.74375,8.44837037 L2.745,8.44837037 Z M17.5,12.5925926 L17.4875,12.6014074 L19.65625,13.8531111 C19.8854167,13.4493086 20,13.0291358 20,12.5925926 L17.5,12.5925926 Z M11.85375,16.9332593 C12.14625,16.9114321 12.44125,16.8841481 12.73875,16.8514074 L12.465,14.348 C12.1983333,14.3773827 11.9341667,14.4017284 11.6725,14.421037 C11.1225,14.4613333 10.565,14.4814815 10,14.4814815 C7.72833333,14.4814815 5.80625,14.1985679 4.23375,13.6327407 C3.56791667,13.3934815 3.07125,13.1344938 2.74375,12.8557778 C2.58125,12.7172593 2.5,12.6295309 2.5,12.5925926 L0,12.5925926 C0,14.0533333 1.13083333,15.1908642 3.3925,16.0051852 C5.23666667,16.6683951 7.43916667,17 10,17 C10.625,17 11.2429167,16.9777531 11.85375,16.9332593 L11.85375,16.9332593 Z" id="形状"></path>
                    <path d="M14,15.5 C14,16.8807119 15.1192881,18 16.5,18 C17.8807119,18 19,16.8807119 19,15.5 C19,14.1192881 17.8807119,13 16.5,13 C15.1192881,13 14,14.1192881 14,15.5 Z" id="路径"></path>
                </g>
            </g>
        </g>
    </g>
</svg>