<?xml version="1.0" encoding="UTF-8"?>
<svg width="36px" height="36px" viewBox="0 0 36 36" version="1.1" xmlns="http://www.w3.org/2000/svg" xmlns:xlink="http://www.w3.org/1999/xlink">
    <title>xiaoguoyanzheng</title>
    <g id="1920" stroke="none" stroke-width="1" fill="none" fill-rule="evenodd">
        <g id="算子定义" transform="translate(-1450, -126)">
            <g id="xiaoguoyanzheng" transform="translate(1450, 126)">
                <circle id="椭圆形备份-2" fill="currentColor" cx="18" cy="18" r="18"></circle>
                <g id="yanzhengma" transform="translate(7, 9)" fill="#FFFFFF" fill-rule="nonzero">
                    <path d="M17.85,0 L3.15,0 C1.41030304,0 0,1.42709236 0,3.1875 L0,13.8125 C0,15.5729076 1.41030304,17 3.15,17 L17.85,17 C18.6854319,17 19.4866468,16.6641751 20.0773864,16.0664029 C20.668126,15.4686307 21,14.6578776 21,13.8125 L21,3.1875 C21,1.42709236 19.589697,0 17.85,0 Z M18.9,13.8125 C18.9,14.3993025 18.429899,14.875 17.85,14.875 L3.15,14.875 C2.57010101,14.875 2.1,14.3993025 2.1,13.8125 L2.1,3.1875 C2.1,2.60069745 2.57010101,2.125 3.15,2.125 L17.85,2.125 C18.429899,2.125 18.9,2.60069745 18.9,3.1875 L18.9,13.8125 Z" id="形状"></path>
                    <path d="M6.09090909,6 C5.48841664,6 5,6.44771525 5,7 L5,11 C5,11.5522847 5.48841664,12 6.09090909,12 C6.69340155,12 7.18181818,11.5522847 7.18181818,11 L7.18181818,7 C7.18181818,6.44771525 6.69340155,6 6.09090909,6 L6.09090909,6 Z M11,6 C10.3975075,6 9.90909091,6.44771525 9.90909091,7 L9.90909091,11 C9.90909091,11.5522847 10.3975075,12 11,12 C11.6024925,12 12.0909091,11.5522847 12.0909091,11 L12.0909091,7 C12.0909091,6.44771525 11.6024925,6 11,6 L11,6 Z M15.9090909,6 C15.3065985,6 14.8181818,6.44771525 14.8181818,7 L14.8181818,11 C14.8181818,11.5522847 15.3065985,12 15.9090909,12 C16.5115834,12 17,11.5522847 17,11 L17,7 C17,6.44771525 16.5115834,6 15.9090909,6 L15.9090909,6 Z" id="形状"></path>
                </g>
            </g>
        </g>
    </g>
</svg>