<?xml version="1.0" encoding="UTF-8"?>
<svg width="24px" height="24px" viewBox="0 0 24 24" version="1.1" xmlns="http://www.w3.org/2000/svg" xmlns:xlink="http://www.w3.org/1999/xlink">
    <title>yuyan</title>
    <g id="页面-1" stroke="none" stroke-width="1" fill="none" fill-rule="evenodd">
        <g id="1920x928" transform="translate(-1833, -18)">
            <g id="yuyan" transform="translate(1833, 18)">
                <rect id="矩形" fill="#D8D8D8" opacity="0" x="0" y="0" width="24" height="24"></rect>
                <g id="yuyanqiehuan" transform="translate(1, 1)" fill="#999999" fill-rule="nonzero">
                    <path d="M11,0 C4.93441667,0 0,4.93441667 0,11 C0,17.0655833 4.93441667,22 11,22 C17.0655833,22 22,17.0655833 22,11 C22,4.93441667 17.0655833,0 11,0 Z M20.5663333,12.0440833 L20.56175,12.0715833 C20.52325,12.4070833 20.46825,12.7370833 20.39675,13.0615833 L20.39675,13.0625 L17.0784167,13.0625 C17.2227352,11.6912869 17.2227352,10.3087131 17.0784167,8.9375 L20.39675,8.9375 C20.46825,9.262 20.5223333,9.592 20.56175,9.9275 C20.56175,9.93666667 20.5645,9.94583333 20.5663333,9.95591667 C20.64425,10.6498333 20.64425,11.3501667 20.5663333,12.0440833 L20.5663333,12.0440833 Z M14.674,19.8916667 C15.7061667,18.5551667 16.4880833,16.6640833 16.8868333,14.4365833 L19.9796667,14.4365833 C19.0310546,16.9034819 17.1137798,18.8744193 14.674,19.89075 L14.674,19.8916667 Z M19.97875,7.56066667 L16.8868333,7.56066667 C16.4880833,5.33316667 15.7061667,3.443 14.674,2.1065 C17.1134325,3.12303624 19.030349,5.09394569 19.97875,7.56066667 L19.97875,7.56066667 Z M15.6924167,8.93566667 C15.8525778,10.3060027 15.8525778,11.6903306 15.6924167,13.0606667 L11.6865833,13.0606667 L11.6865833,8.93566667 L15.6924167,8.93566667 Z M11.6865833,7.56066667 L11.6865833,1.4905 C13.40075,2.0075 14.8509167,4.40275 15.477,7.56341667 L11.6875,7.56341667 L11.6865833,7.56066667 Z M11.6865833,14.4356667 L15.477,14.4356667 C14.8509167,17.5981667 13.40075,19.9925 11.6875,20.5095 L11.6875,14.4375 L11.6865833,14.4356667 Z M2.02125,14.4365833 L5.11316667,14.4365833 C5.51191667,16.6640833 6.29383335,18.5551667 7.326,19.89075 C4.88656749,18.8742138 2.96965102,16.9033043 2.02125,14.4365833 L2.02125,14.4365833 Z M7.326,2.10833333 C6.29383333,3.443 5.51191667,5.335 5.11316667,7.5625 L2.02033333,7.5625 C2.96915634,5.09542379 4.88678966,3.12445846 7.32691667,2.10833333 L7.326,2.10833333 Z M6.30758333,13.0625 C6.14742215,11.6921639 6.14742215,10.3078361 6.30758333,8.9375 L10.3125,8.9375 L10.3125,13.0625 L6.30666667,13.0625 L6.30758333,13.0625 Z M10.3125,14.4375 L10.3125,20.5104167 C8.59833333,19.9934167 7.14908333,17.5981667 6.523,14.4375 L10.3125,14.4375 Z M10.3125,7.5625 L6.523,7.5625 C7.14908333,4.40183333 8.59833333,2.0075 10.3125,1.48958333 L10.3125,7.5625 Z M1.43458333,9.955 C1.43458333,9.94766667 1.43733333,9.93941667 1.43825,9.93116667 C1.47583333,9.5975 1.53083333,9.26566667 1.60325,8.9375 L4.92158333,8.9375 C4.7766819,10.3086825 4.7766819,11.6913175 4.92158333,13.0625 L1.60325,13.0625 C1.53083333,12.7343333 1.47583333,12.4025 1.43825,12.0688333 L1.43458333,12.0440833 C1.35542622,11.3502783 1.35542622,10.6497217 1.43458333,9.95591667 L1.43458333,9.955 Z" id="形状"></path>
                </g>
            </g>
        </g>
    </g>
</svg>