<?xml version="1.0" encoding="UTF-8"?>
<svg width="20px" height="20px" viewBox="0 0 20 20" version="1.1" xmlns="http://www.w3.org/2000/svg" xmlns:xlink="http://www.w3.org/1999/xlink">
    <title>zhinengyouhua</title>
    <g id="1920" stroke="none" stroke-width="1" fill="none" fill-rule="evenodd">
        <g id="GroundTruch" transform="translate(-1826, -229)" fill="#386CEB">
            <g id="zhinengyouhua" transform="translate(1826, 229)">
                <rect id="矩形备份-5" fill-opacity="0.1" x="0" y="0" width="20" height="20" rx="4"></rect>
                <g id="optimize" transform="translate(4, 4)" fill-rule="nonzero">
                    <path d="M4.52479315,0.159347008 C4.32068668,-0.0218908832 4.02316792,-0.051530086 3.78728357,0.0858753509 C3.55139922,0.223280788 3.43055879,0.496619182 3.48773617,0.763445014 L4.18500225,4.00045086 L1.25256893,5.7717142 C1.01791022,5.91311441 0.901243022,6.18961188 0.96372871,6.45625615 C1.0262144,6.72290043 1.25359756,6.91885962 1.52667533,6.94140449 L3.96015919,7.14340176 L0.184564447,10.922644 C0.025148116,11.0823127 -0.036930479,11.3148545 0.0217130675,11.5326731 C0.0803566141,11.7504917 0.250812952,11.9204953 0.468872829,11.9786451 C0.686932706,12.036795 0.91946764,11.9742568 1.07888397,11.814588 L5.00668989,7.88321666 L5.54227109,10.2396408 C5.60259183,10.5041881 5.82531178,10.7006144 6.09545066,10.7275136 C6.36558953,10.7544128 6.62270726,10.6057665 6.73406553,10.3583141 L7.97196547,7.60925788 L11.31619,7.8882666 C11.5870679,7.91071933 11.8419382,7.75744107 11.9489567,7.50772259 C12.0559752,7.2580041 11.9911364,6.96785998 11.7879814,6.7873816 L9.29639205,4.57361806 L10.6890295,1.56133413 C10.8044158,1.3109012 10.7438317,1.01459516 10.5393922,0.829484863 C10.3349527,0.644374569 10.0339623,0.613292077 9.79597309,0.752713904 L7.02332992,2.37879173 L4.52479315,0.159347008 Z M6.4284957,6.30042919 L6.80059366,8 L7.45256015,6.4965335 C7.56322617,6.24137366 7.816814,6.08633778 8.0854447,6.10960714 L10,6.27467811 L8.56440156,4.94948828 C8.35499769,4.75633382 8.29197598,4.44370556 8.40920174,4.17959722 L9.15785008,2.49785406 L7.71843526,3.37471112 C7.48071681,3.51942526 7.18026616,3.48876933 6.97423936,3.29877847 L5.56471959,2 L5.95271916,3.87256521 C6.00981059,4.14795522 5.89231023,4.43061752 5.66012931,4.57642787 L4,5.6183559 L5.85476519,5.77880488 C6.13694483,5.80003903 6.37135661,6.01292551 6.42913177,6.30042919 L6.4284957,6.30042919 Z" id="形状"></path>
                </g>
            </g>
        </g>
    </g>
</svg>